<svg width="48" height="40" fill="none" xmlns="http://www.w3.org/2000/svg"><g clip-path="url(#a)"><path d="M31.772 4.724 16.8 31.499a.814.814 0 0 1-1.417.006L.112 4.726a.814.814 0 0 1 .85-1.204l14.989 2.68a.814.814 0 0 0 .289-.001l14.676-2.675a.814.814 0 0 1 .856 1.198Z" fill="url(#b)"/><path d="m23.091.008-11.08 2.171a.407.407 0 0 0-.329.375l-.681 11.512a.408.408 0 0 0 .498.421l3.085-.712a.407.407 0 0 1 .49.478l-.917 4.488a.407.407 0 0 0 .517.471l1.905-.579c.296-.09.58.17.517.472l-1.456 7.05c-.091.44.495.681.74.303l.163-.252 9.03-18.02a.407.407 0 0 0-.441-.582l-3.176.613a.407.407 0 0 1-.468-.512L23.56.52a.407.407 0 0 0-.47-.512Z" fill="url(#c)"/></g><mask id="d" style="mask-type:luminance" maskUnits="userSpaceOnUse" x="17" y="10" width="31" height="29"><path d="M48 10.476H17v27.9h31v-27.9Z" fill="#fff"/></mask><g mask="url(#d)"><path d="M32.5 27.379a2.952 2.952 0 1 0 0-5.905 2.952 2.952 0 0 0 0 5.905Z" fill="#0A7EA4"/><path d="M32.5 31.07c8.153 0 14.762-2.975 14.762-6.644 0-3.668-6.61-6.643-14.762-6.643-8.153 0-14.762 2.974-14.762 6.643 0 3.669 6.61 6.643 14.762 6.643Z" stroke="#0A7EA4"/><path d="M26.747 27.748c4.076 7.06 9.957 11.297 13.134 9.463 3.177-1.835 2.448-9.046-1.628-16.106-4.077-7.06-9.957-11.297-13.134-9.463-3.177 1.834-2.448 9.045 1.628 16.106Z" stroke="#0A7EA4"/><path d="M26.747 21.105c-4.076 7.06-4.805 14.271-1.628 16.106 3.177 1.834 9.057-2.403 13.134-9.463 4.076-7.06 4.805-14.272 1.628-16.106-3.177-1.834-9.058 2.402-13.134 9.463Z" stroke="#0A7EA4"/></g><defs><linearGradient id="b" x1="-26.391" y1="220.877" x2="1588.49" y2="2414.03" gradientUnits="userSpaceOnUse"><stop stop-color="#41D1FF"/><stop offset="1" stop-color="#BD34FE"/></linearGradient><linearGradient id="c" x1="644.999" y1="59.74" x2="977.211" y2="2338.64" gradientUnits="userSpaceOnUse"><stop stop-color="#FFEA83"/><stop offset=".083" stop-color="#FFDD35"/><stop offset="1" stop-color="#FFA800"/></linearGradient><clipPath id="a"><path fill="#fff" d="M0 0h31.88v32H0z"/></clipPath></defs></svg>